<svg xmlns="http://www.w3.org/2000/svg" width="128" height="128" viewBox="0 0 128 128"><path fill="#FFF" d="M0 56C0 56 27.721 59.093 33.672 67.556 39.623 76.017 44.226 108 44.226 108 44.226 108 48.83 76.017 54.78 67.556 60.731 59.093 88.451 56 88.451 56 88.451 56 60.731 52.907 54.78 44.445 48.829 35.983 44.226 4 44.226 4 44.226 4 39.622 35.983 33.672 44.445 27.721 52.907 0 56 0 56ZM65.765 92C65.765 92 84.956 94.141 89.077 99.999 93.195 105.856 96.383 128 96.383 128 96.383 128 99.57 105.856 103.69 99.999 107.81 94.141 127 92 127 92 127 92 107.81 89.858 103.689 84 99.568 78.142 96.382 56 96.382 56 96.382 56 93.194 78.142 89.075 84 84.956 89.858 65.765 92 65.765 92ZM80.372 28C80.372 28 95.299 29.665 98.504 34.221 101.707 38.777 104.187 56 104.187 56 104.187 56 106.666 38.777 109.87 34.221 113.074 29.665 128 28 128 28 128 28 113.074 26.334 109.869 21.778 106.665 17.221 104.187 0 104.187 0 104.187 0 101.708 17.221 98.504 21.778 95.299 26.334 80.372 28 80.372 28Z"/></svg>