<svg xmlns="http://www.w3.org/2000/svg" width="50" height="50" viewBox="0 0 50 50"><g fill="none" fill-rule="evenodd"><g fill="#000" fill-rule="nonzero" transform="translate(5 5)"><path d="M20.5,41 C9.17816263,41 1.40058905e-15,31.8218374 1.40058905e-15,20.5 C1.40058905e-15,9.17816263 9.17816263,1.40058905e-15 20.5,1.40058905e-15 C31.8218374,1.40058905e-15 41,9.17816263 41,20.5 C41,25.936938 38.8401848,31.1511933 34.995689,34.995689 C31.1511933,38.8401848 25.936938,41 20.5,41 Z M20.5,3.15384615 C10.9199838,3.15384615 3.15384615,10.9199838 3.15384615,20.5 C3.15384615,30.0800162 10.9199838,37.8461538 20.5,37.8461538 C30.0800162,37.8461538 37.8461538,30.0800162 37.8461538,20.5 C37.8461538,15.899514 36.0186179,11.4874519 32.765583,8.23441699 C29.5125481,4.98138212 25.100486,3.15384615 20.5,3.15384615 Z"/><path d="M20.5,31.5384615 C19.6290894,31.5384615 18.9230769,30.832449 18.9230769,29.9615385 L18.9230769,11.0384615 C18.9230769,10.167551 19.6290894,9.46153846 20.5,9.46153846 C21.3709106,9.46153846 22.0769231,10.167551 22.0769231,11.0384615 L22.0769231,29.9615385 C22.0769231,30.832449 21.3709106,31.5384615 20.5,31.5384615 Z"/><path d="M29.9615385,22.0769231 L11.0384615,22.0769231 C10.167551,22.0769231 9.46153846,21.3709106 9.46153846,20.5 C9.46153846,19.6290894 10.167551,18.9230769 11.0384615,18.9230769 L29.9615385,18.9230769 C30.832449,18.9230769 31.5384615,19.6290894 31.5384615,20.5 C31.5384615,21.3709106 30.832449,22.0769231 29.9615385,22.0769231 Z"/></g><rect width="50" height="50"/></g></svg>