<svg xmlns="http://www.w3.org/2000/svg" width="50" height="50" viewBox="0 0 50 50"><path fill="#FFF" d="M25,0 C38.8071188,0 50,11.1928812 50,25 C50,38.8071188 38.8071188,50 25,50 C11.1928812,50 0,38.8071188 0,25 C0,11.1928812 11.1928812,0 25,0 Z M25,3.48837209 C13.119456,3.48837209 3.48837209,13.119456 3.48837209,25 C3.48837209,36.880544 13.119456,46.5116279 25,46.5116279 C36.880544,46.5116279 46.5116279,36.880544 46.5116279,25 C46.5116279,13.119456 36.880544,3.48837209 25,3.48837209 Z M36.6839793,17.9857835 L36.8876416,18.1448772 C37.5364565,18.7330244 37.6401498,19.6980888 37.1675691,20.4049051 L37.0084753,20.6085674 L24.3597174,34.5620558 C23.7747812,35.2073286 22.8162421,35.3139012 22.1097937,34.8486619 L21.9060477,34.6919026 L13.624573,27.3005602 C12.9058986,26.6591326 12.8432779,25.5565519 13.4847058,24.8378774 C14.0678219,24.184537 15.0320563,24.0733898 15.742503,24.5404949 L15.9473886,24.6980102 L22.9372107,30.9393979 L34.4239514,18.2657112 C35.0120986,17.616896 35.9771628,17.5132028 36.6839793,17.9857835 Z"/></svg>