<svg xmlns="http://www.w3.org/2000/svg" width="52" height="52" viewBox="0 0 52 52"><path fill="#FFF" d="M26,0 C40.3598,0 52,11.6428 52,26 C52,40.3572 40.3598,52 26,52 C11.6402,52 0,40.3572 0,26 C0,11.6428 11.6402,0 26,0 Z M26,4.3342 C14.053,4.3342 4.3342,14.053 4.3342,26 C4.3342,37.947 14.053,47.6658 26,47.6658 C37.947,47.6658 47.6658,37.947 47.6658,26 C47.6658,14.053 37.947,4.3342 26,4.3342 Z M25.99662,32.50572 C27.43052,32.50572 28.59298,33.66844 28.59298,35.10234 C28.59298,36.53624 27.43052,37.69896 25.99662,37.69896 C24.56246,37.69896 23.4,36.53624 23.4,35.10234 C23.4,33.66844 24.56246,32.50572 25.99662,32.50572 Z M25.9857,12.9999994 C26.97292,12.99922 27.78932,13.73216 27.91906,14.683864 L27.93726,14.94844 L27.9466205,26.6526 C27.9474,27.72952 27.0751,28.60338 25.99818,28.6041606 C25.01096,28.60494 24.1943,27.872 24.06456,26.9204 L24.04662,26.65572 L24.0372591,14.95156 C24.03622,13.874614 24.90852,13.000858 25.9857,12.9999994 Z"/></svg>