<svg xmlns="http://www.w3.org/2000/svg" width="240" height="226" viewBox="0 0 240 226"><g fill="none" fill-rule="evenodd"><circle cx="113" cy="113" r="105.5" stroke="#FFF" stroke-width="15" transform="translate(7)"/><path fill="#FFF" fill-rule="nonzero" d="M61.9726562,127.175781 L77.4951172,127.175781 C83.4716797,155.730469 106.879883,170.256836 139.086914,170.256836 C145.229492,170.256836 151.455078,169.592773 155.605469,168.513672 L155.605469,148.591797 C151.621094,149.338867 145.146484,149.753906 140,149.753906 C121.074219,149.753906 107.626953,142.449219 102.646484,127.175781 L147.96875,127.175781 L147.96875,118.875 L100.820312,118.875 C100.571289,116.799805 100.488281,114.558594 100.488281,112.151367 L100.488281,111.985352 C100.488281,109.495117 100.571289,107.087891 100.90332,104.763672 L147.96875,104.763672 L147.96875,96.4628906 L102.8125,96.4628906 C107.958984,81.5214844 121.323242,74.2167969 140,74.2167969 C145.146484,74.2167969 151.621094,74.7148438 155.605469,75.4619141 L155.605469,55.5400391 C151.455078,54.4609375 145.229492,53.796875 139.086914,53.796875 C107.045898,53.796875 83.6376953,68.1572266 77.578125,96.4628906 L61.9726562,96.4628906 L61.9726562,104.763672 L76.3330078,104.763672 C76.1669922,107.087891 76.0009766,109.412109 76.0009766,111.902344 L76.0839844,112.068359 C76.0839844,114.392578 76.1669922,116.716797 76.3330078,118.875 L61.9726562,118.875 L61.9726562,127.175781 Z"/></g></svg>