<?xml version="1.0" encoding="UTF-8"?>
<svg width="240px" height="226px" viewBox="0 0 240 226" version="1.1" xmlns="http://www.w3.org/2000/svg" xmlns:xlink="http://www.w3.org/1999/xlink">
    <title>Artboard</title>
    <g id="Artboard" stroke="none" stroke-width="1" fill="none" fill-rule="evenodd">
        <g id="Group-2" transform="translate(7.000000, 0.000000)">
            <circle id="Oval" stroke="#FFFFFF" stroke-width="15" cx="113" cy="113" r="105.5"></circle>
            <g id="Group" transform="translate(54.972656, 53.796875)" fill="#FFFFFF" fill-rule="nonzero">
                <g id="€">
                    <path d="M0,73.3789062 L15.5224609,73.3789062 C21.4990234,101.933594 44.9072266,116.459961 77.1142578,116.459961 C83.2568359,116.459961 89.4824219,115.795898 93.6328125,114.716797 L93.6328125,94.7949219 C89.6484375,95.5419922 83.1738281,95.9570312 78.0273438,95.9570312 C59.1015625,95.9570312 45.6542969,88.6523438 40.6738281,73.3789062 L85.9960938,73.3789062 L85.9960938,65.078125 L38.8476562,65.078125 C38.5986328,63.0029297 38.515625,60.7617188 38.515625,58.3544922 L38.515625,58.1884766 C38.515625,55.6982422 38.5986328,53.2910156 38.9306641,50.9667969 L85.9960938,50.9667969 L85.9960938,42.6660156 L40.8398438,42.6660156 C45.9863281,27.7246094 59.3505859,20.4199219 78.0273438,20.4199219 C83.1738281,20.4199219 89.6484375,20.9179688 93.6328125,21.6650391 L93.6328125,1.74316406 C89.4824219,0.6640625 83.2568359,0 77.1142578,0 C45.0732422,0 21.6650391,14.3603516 15.6054688,42.6660156 L0,42.6660156 L0,50.9667969 L14.3603516,50.9667969 C14.1943359,53.2910156 14.0283203,55.6152344 14.0283203,58.1054688 L14.1113281,58.2714844 C14.1113281,60.5957031 14.1943359,62.9199219 14.3603516,65.078125 L0,65.078125 L0,73.3789062 Z" id="Path"></path>
                </g>
            </g>
        </g>
    </g>
</svg>