<svg xmlns="http://www.w3.org/2000/svg" width="18" height="18" viewBox="0 0 18 18"><g fill="#FFF"><path d="M17.9,8.6 C17.8,8.5 17.8,8.4 17.7,8.3 L14.7,5.3 C14.3,4.9 13.7,4.9 13.3,5.3 C12.9,5.7 12.9,6.3 13.3,6.7 L14.6,8 L10,8 C9.4,8 9,8.4 9,9 C9,9.6 9.4,10 10,10 L14.6,10 L13.3,11.3 C12.9,11.7 12.9,12.3 13.3,12.7 C13.5,12.9 13.8,13 14,13 C14.2,13 14.5,12.9 14.7,12.7 L17.7,9.7 C17.8,9.6 17.9,9.5 17.9,9.4 C18,9.1 18,8.9 17.9,8.6 Z"/><path d="M12.5,15.1 C11.4,15.7 10.2,16 9,16 C5.1,16 2,12.9 2,9 C2,5.1 5.1,2 9,2 C10.2,2 11.4,2.3 12.5,2.9 C13,3.2 13.6,3 13.9,2.5 C14.2,2 14,1.4 13.5,1.1 C12.1,0.4 10.6,0 9,0 C4,0 0,4 0,9 C0,14 4,18 9,18 C10.6,18 12.1,17.6 13.5,16.8 C14,16.5 14.1,15.9 13.9,15.4 C13.6,15 13,14.8 12.5,15.1 Z"/></g></svg>