<svg xmlns="http://www.w3.org/2000/svg" width="29" height="31" viewBox="0 0 29 31"><g fill="#FFF"><path d="M3 11 1 11C.4 11 0 11.4 0 12 0 12.6.4 13 1 13L3 13C3.6 13 4 12.6 4 12 4 11.4 3.6 11 3 11ZM18.4 6.6C18.7 6.6 18.9 6.5 19.1 6.3L20.5 4.9C20.9 4.5 20.9 3.9 20.5 3.5 20.1 3.1 19.5 3.1 19.1 3.5L17.7 4.9C17.3 5.3 17.3 5.9 17.7 6.3 17.9 6.5 18.1 6.6 18.4 6.6ZM12 4C12.6 4 13 3.6 13 3L13 1C13 .4 12.6 0 12 0 11.4 0 11 .4 11 1L11 3C11 3.6 11.4 4 12 4ZM6.3 6.3C6.7 5.9 6.7 5.3 6.3 4.9L4.9 3.5C4.5 3.1 3.9 3.1 3.5 3.5 3.1 3.9 3.1 4.5 3.5 4.9L4.9 6.3C5.1 6.5 5.4 6.6 5.6 6.6 5.8 6.6 6.1 6.5 6.3 6.3ZM19.3 22.1C18.8 21.9 18.2 22.2 18 22.7L16 28.7C15.8 29.2 16.1 29.8 16.6 30 16.7 30 16.8 30.1 16.9 30.1 17.3 30.1 17.7 29.8 17.8 29.4L19.8 23.4C20.1 22.8 19.8 22.2 19.3 22.1ZM16.3 20.1C15.8 19.9 15.2 20.2 15 20.7L13 26.7C12.8 27.2 13.1 27.8 13.6 28 13.7 28 13.8 28.1 13.9 28.1 14.3 28.1 14.7 27.8 14.8 27.4L16.8 21.4C17.1 20.8 16.8 20.2 16.3 20.1ZM23.3 20.1C22.8 19.9 22.2 20.2 22 20.7L20 26.7C19.8 27.2 20.1 27.8 20.6 28 20.7 28 20.8 28.1 20.9 28.1 21.3 28.1 21.7 27.8 21.8 27.4L23.8 21.4C24.1 20.8 23.8 20.2 23.3 20.1Z"/><path d="M21.3 10C17.9 10 15 12 14 15.1 11.3 15.2 9.1 17.4 9.1 20.1 9.1 22 10.2 23.6 11.8 24.5L13.2 20.2C13.7 18.6 15.4 17.8 17 18.3 17.9 18.6 18.6 19.3 18.9 20.2 19.3 20.2 19.7 20.2 20 20.3 20.1 20.3 20.1 20.3 20.1 20.4L20.2 20.2C20.7 18.6 22.4 17.8 24 18.3 25.6 18.8 26.4 20.5 25.9 22.1L25.2 24.1C27.5 22.8 29 20.4 29 17.7 29 13.4 25.5 10 21.3 10ZM18.1 8.5C16.8 6.4 14.6 5 12 5 8.1 5 5 8.1 5 12 5 14.1 6 16.1 7.5 17.4 8.4 15.3 10.2 13.7 12.5 13.2 13.7 11 15.7 9.3 18.1 8.5Z"/></g></svg>