<svg xmlns="http://www.w3.org/2000/svg" width="30" height="26" viewBox="0 0 30 26"><path fill="#ABABAB" d="M14.950792,25.4304274 C14.1519459,25.4323669 13.3853093,25.1156344 12.820792,24.5504095 L2.52079204,14.2504095 C0.877194596,12.5889474 -0.0306851323,10.3372616 0.000792043587,8.00040946 C0.0166255731,5.85925016 0.883794296,3.8123897 2.4109397,2.3115097 C3.9380851,0.810629699 5.99968026,-0.0209018625 8.14079204,0.000409462456 C10.3210033,-0.0215516486 12.417103,0.840699379 13.950792,2.39040946 L14.950792,3.39040946 L15.770792,2.57040946 C18.6989534,-0.435347277 23.3974957,-0.815502068 26.770792,1.68040946 C28.6491541,3.12692654 29.8144366,5.31161095 29.9694715,7.67732853 C30.1245064,10.0430461 29.2543078,12.3611237 27.580792,14.0404095 L17.080792,24.5504095 C16.5162748,25.1156344 15.7496382,25.4323669 14.950792,25.4304274 Z M8.10079204,1.99040627 C6.51131255,1.98878741 4.98355485,2.60562855 3.84079204,3.71040946 C2.66356305,4.843065 1.99907816,6.40677128 2.00079204,8.04040946 C1.98308821,9.83673405 2.68534457,11.5653651 3.95079204,12.8404095 L14.250792,23.1404095 C14.4385586,23.3297221 14.6941545,23.4362078 14.960792,23.4362078 C15.2274296,23.4362078 15.4830254,23.3297221 15.670792,23.1404095 L26.180792,12.6204095 C27.4286028,11.3462223 28.0726473,9.59966098 27.950792,7.82040946 C27.8427264,6.02204633 26.9552836,4.36037369 25.520792,3.27040946 C22.9478641,1.37338949 19.3674202,1.67710696 17.150792,3.98040946 L15.660792,5.51040946 C15.4730254,5.69972211 15.2174296,5.80620779 14.950792,5.80620779 C14.6841545,5.80620779 14.4285586,5.69972211 14.240792,5.51040946 L12.540792,3.81040946 C11.3698951,2.64968622 9.78950277,1.99597848 8.14079204,1.99040627 L8.10079204,1.99040627 Z"/></svg>