<svg xmlns="http://www.w3.org/2000/svg" width="30" height="26" viewBox="0 0 30 26"><path fill="#D10000" d="M14.950792,25.4304274 C14.1519459,25.4323669 13.3853093,25.1156344 12.820792,24.5504095 L2.52079204,14.2504095 C0.877194596,12.5889474 -0.0306851323,10.3372616 0.000792043587,8.00040946 C0.0166255731,5.85925016 0.883794296,3.8123897 2.4109397,2.3115097 C3.9380851,0.810629699 5.99968026,-0.0209018625 8.14079204,0.000409462456 C10.3210033,-0.0215516486 12.417103,0.840699379 13.950792,2.39040946 L14.950792,3.39040946 L15.770792,2.57040946 C18.6989534,-0.435347277 23.3974957,-0.815502068 26.770792,1.68040946 C28.6491541,3.12692654 29.8144366,5.31161095 29.9694715,7.67732853 C30.1245064,10.0430461 29.2543078,12.3611237 27.580792,14.0404095 L17.080792,24.5504095 C16.5162748,25.1156344 15.7496382,25.4323669 14.950792,25.4304274 Z"/></svg>