<svg xmlns="http://www.w3.org/2000/svg" xmlns:xlink="http://www.w3.org/1999/xlink" width="390" height="385" viewBox="0 0 390 385"><defs><polygon id="a" points="0 0 388.82 0 388.82 384.928 0 384.928"/></defs><g fill="none" fill-rule="evenodd"><g transform="translate(.227 .012)"><mask id="b" fill="#fff"><use xlink:href="#a"/></mask><path fill="#ED6E79" d="M388.82,192.476 C388.82,298.777 301.781,384.953 194.41,384.953 C87.043,384.953 -3.85802501e-15,298.777 -3.85802501e-15,192.476 C-3.85802501e-15,86.176 87.043,0 194.41,0 C301.781,0 388.82,86.176 388.82,192.476 Z" mask="url(#b)"/></g><path fill="#000" d="M308.016,280.926 C304.941,282.879 301.672,284.82 298.242,286.723 C281.109,296.223 262.98,303.199 244.383,307.645 C211.703,315.449 177.57,315.449 144.891,307.645 C126.289,303.199 108.164,296.223 91.031,286.723 C87.602,284.82 84.336,282.879 81.262,280.922 C58.402,266.402 45.945,250.887 53.32,240.504 C63.602,226.02 71.664,208.758 76.52,197.125 C85.395,175.844 100,157.367 118.992,144.281 C130.949,136.039 143.797,130.242 156.949,126.453 C162.301,124.906 167.707,123.691 173.129,122.781 C177.215,122.098 181.305,121.586 185.379,121.234 C188.477,120.969 191.566,120.789 194.637,120.699 C198.098,120.801 201.566,121.008 205.047,121.34 C208.391,121.652 211.738,122.074 215.086,122.613 C221.629,123.66 228.164,125.148 234.609,127.133 C246.965,130.922 259.02,136.52 270.285,144.281 C289.277,157.367 303.879,175.844 312.758,197.125 C317.613,208.758 325.676,226.02 335.957,240.504 C343.324,250.887 330.875,266.402 308.016,280.926"/><path fill="#000" d="M78.359,173.219 C80.078,176.945 82.047,180.707 84.293,184.477 C115.539,236.984 148.965,130.727 148.965,130.727 C148.965,130.727 110.863,88.711 85.691,82.398 C82.453,81.59 79.176,82.332 76.668,84.18 C74.855,85.512 73.445,87.418 72.738,89.727 C68.355,104.066 61.719,137.156 78.359,173.219 M310.914,173.219 C309.199,176.945 307.227,180.707 304.984,184.477 C273.734,236.984 240.313,130.727 240.313,130.727 C240.313,130.727 278.414,88.711 303.586,82.398 C306.824,81.59 310.102,82.332 312.609,84.18 C314.422,85.512 315.832,87.418 316.539,89.727 C320.918,104.066 327.555,137.156 310.914,173.219"/><path fill="#FFF" d="M217.434 224.043C217.434 224.043 224.629 188.914 252.141 186.801 279.652 184.684 291.078 210.078 291.5 214.309 291.926 218.543 283.461 238.434 257.641 243.512 231.824 248.594 216.117 228.84 217.434 224.043M171.844 224.043C171.844 224.043 164.648 188.914 137.137 186.801 109.625 184.684 98.199 210.078 97.773 214.309 97.352 218.543 105.816 238.434 131.633 243.512 157.453 248.594 173.16 228.84 171.844 224.043"/><path fill="#000" d="M275.418 216.18C275.418 229.266 264.809 239.871 251.727 239.871 238.641 239.871 228.035 229.266 228.035 216.18 228.035 203.098 238.641 192.488 251.727 192.488 264.809 192.488 275.418 203.098 275.418 216.18M161.242 216.18C161.242 229.266 150.633 239.871 137.551 239.871 124.465 239.871 113.859 229.266 113.859 216.18 113.859 203.094 124.465 192.488 137.551 192.488 150.633 192.488 161.242 203.094 161.242 216.18"/><path fill="#FFF" d="M227.211,260.906 C223.16,266.035 216.297,268.828 209.809,268.266 C206.449,267.973 203.43,266.359 201.082,263.965 C199.828,262.684 198.785,261.105 198.199,259.406 C197.512,257.402 197.594,255.266 196.988,253.254 C196.711,252.328 195.527,251.746 194.637,252.168 C193.746,251.746 192.566,252.328 192.285,253.254 C191.68,255.266 191.766,257.402 191.078,259.406 C190.492,261.105 189.449,262.684 188.191,263.965 C185.844,266.359 182.828,267.973 179.469,268.266 C172.98,268.828 166.113,266.035 162.066,260.906 C160.813,259.316 157.98,260.285 158.672,262.469 C161.477,271.352 174.102,275.855 182.633,273.91 C187.324,272.844 191.801,269.996 194.637,266.051 C197.477,269.996 201.953,272.844 206.645,273.91 C215.172,275.855 227.797,271.352 230.605,262.469 C231.293,260.285 228.461,259.316 227.211,260.906"/><path fill="#FFF" d="M203.934 244.344C202.367 242.293 198.914 242.34 196.598 242.316 195.973 242.313 195.316 242.297 194.637 242.293 193.934 242.297 193.273 242.313 192.652 242.316 190.336 242.34 186.883 242.293 185.316 244.344 183.363 246.879 185.27 250.141 187.094 252.113 189.137 254.313 191.727 255.883 194.625 255.41 197.523 255.883 200.113 254.313 202.152 252.113 203.98 250.141 205.883 246.879 203.934 244.344M82.539 171.121C93.957 156.879 109.367 146.465 95.68 110.336 90.406 96.406 85.156 90.262 80.773 86.988 79.043 88.262 77.848 89.191 77.172 91.395 72.988 105.086 66.648 136.684 82.539 171.121"/><path fill="#FFF" d="M82.539 171.121C93.957 156.879 109.367 146.465 95.68 110.336 90.406 96.406 85.156 90.262 80.773 86.988 79.043 88.262 77.848 89.191 77.172 91.395 72.988 105.086 66.648 136.684 82.539 171.121M306.738 171.121C295.32 156.879 279.906 146.465 293.594 110.336 298.871 96.406 304.117 90.262 308.504 86.988 310.23 88.262 311.43 89.191 312.105 91.395 316.289 105.086 322.625 136.684 306.738 171.121M165.617 295.128856C163.805 295.121 162.121 295.445 160.645 296.191 155.074 299.012 154.516 311.266 154.578 317.168 154.516 323.066 155.074 335.324 160.645 338.141 170.09 342.918 187.879 330.355 194.637 325.117 194.789 325.238 194.938 325.352 195.102 325.477 201.055 330.039 214.152 339.168 223.66 339.203 225.473 339.211 227.152 338.887 228.629 338.141 234.199 335.324 234.762 323.066 234.695 317.168 234.758 311.266 234.199 299.012 228.629 296.191 227.152 295.445 225.473 295.121 223.66 295.128856 223.461 295.128856 223.262 295.137 223.063 295.145 213.609 295.547 200.934 304.391 195.102 308.855 194.93 308.988 194.797 309.094 194.637 309.219 188.949 304.809 175.402 295.168 165.617 295.128856Z"/><path stroke="#000" stroke-width="3.408" d="M165.617,295.128856 C163.805,295.121 162.121,295.445 160.645,296.191 C155.074,299.012 154.516,311.266 154.578,317.168 C154.516,323.066 155.074,335.324 160.645,338.141 C170.09,342.918 187.879,330.355 194.637,325.117 C194.789,325.238 194.938,325.352 195.102,325.477 C201.055,330.039 214.152,339.168 223.66,339.203 C225.473,339.211 227.152,338.887 228.629,338.141 C234.199,335.324 234.762,323.066 234.695,317.168 C234.758,311.266 234.199,299.012 228.629,296.191 C227.152,295.445 225.473,295.121 223.66,295.128856 C223.461,295.128856 223.262,295.137 223.063,295.145 C213.609,295.547 200.934,304.391 195.102,308.855 C194.93,308.988 194.797,309.094 194.637,309.219 C188.949,304.809 175.402,295.168 165.617,295.128856 Z"/></g></svg>