<svg xmlns="http://www.w3.org/2000/svg" width="21" height="21" viewBox="0 0 21 21"><g fill="#FFF"><path d="M6.17531604 19.6561638C4.8483274 19.6585258 3.57482337 19.1332953 2.63531604 18.1961558L2.63531604 18.1961558C.683406345 16.2436566.683406345 13.0786551 2.63531604 11.1261558L4.75531604 9.00615583 11.825316 16.0761558 9.70531604 18.1961558C8.76826067 19.1308454 7.49884057 19.6558746 6.17531604 19.6561638L6.17531604 19.6561638ZM4.05531604 16.7761558C5.22658622 17.9459693 7.12404585 17.9459693 8.29531604 16.7761558L9.00531604 16.0761558 4.75531604 11.8261558 4.05531604 12.5361558C2.88550252 13.707426 2.88550252 15.6048856 4.05531604 16.7761558ZM16.075316 11.8261558 9.00531604 4.75615583 11.125316 2.63615583C13.0778153.684246135 16.2428168.684246135 18.195316 2.63615583L18.195316 2.63615583C20.1472257 4.58865508 20.1472257 7.75365657 18.195316 9.70615583L16.075316 11.8261558ZM11.825316 4.75615583 16.075316 9.00615583 16.775316 8.29615583C17.8767515 7.11411681 17.8442515 5.27211694 16.7018032 4.12966863 15.5593549 2.98722032 13.7173551 2.95472038 12.535316 4.05615583L11.825316 4.75615583Z"/><rect width="6" height="2" x="7.417" y="12.247" transform="rotate(-45 10.417 13.247)"/><rect width="6" height="2" x="4.585" y="9.417" transform="rotate(-45 7.585 10.417)"/><rect width="4.73" height="2" x=".014" y="17.453" transform="rotate(-45 2.38 18.453)"/><rect width="4.73" height="2" x="16.087" y="1.379" transform="rotate(-45 18.452 2.38)"/></g></svg>