<?xml version="1.0" encoding="UTF-8"?>
<svg width="240px" height="226px" viewBox="0 0 240 226" version="1.1" xmlns="http://www.w3.org/2000/svg" xmlns:xlink="http://www.w3.org/1999/xlink">

    <g id="Artboard" stroke="none" stroke-width="1" fill="none" fill-rule="evenodd">
        <g id="6623213_animal_cat_dog_paw_paws_icon" transform="translate(0.000000, 9.000000)" fill="#FFFFFF" fill-rule="nonzero">
            <path d="M152.94353,110.306088 C134.198862,92.5646373 104.84702,92.5646373 86.1023522,110.306088 L45.7913458,148.409119 C22.6857536,169.398776 39.354788,209.522422 70.5473375,207.955414 C87.4639318,207.501806 101.203507,198.842027 119.481681,199.171923 C138.420015,198.842027 152.48967,206.47088 169.488784,207.955414 C200.144954,208.656444 215.988788,168.986405 193.213276,148.409119 L152.94353,110.306088 Z" id="Path"></path>
            <path d="M223.17286,54.3587003 C207.435562,51.2627339 195.406004,68.8065433 192.275023,83.9148592 C182.88208,130.684591 228.116514,139.600974 238.704173,94.2347471 C243.029871,74.7920783 236.191149,57.2482689 223.17286,54.3587003 Z" id="Path"></path>
            <path d="M156.479303,79 C172.20915,79 185,61.2157374 185,39.3970818 C183.427015,-13.1323606 129.53159,-13.1323606 128,39.3970818 C128,61.2157374 140.79085,79 156.479303,79 Z" id="Path"></path>
            <path d="M47.74647,83.8280589 C44.6465438,68.763581 32.5361654,51.2706763 16.7472078,54.3576595 C-12.5160957,61.7252593 -0.116390855,123.835361 28.4855951,124 C44.6878762,123.464923 52.1690314,104.737225 47.74647,83.8280589 Z" id="Path"></path>
            <path d="M83.5206972,79 C99.2091503,79 112,61.2157374 112,39.3970818 C110.46841,-13.1323606 56.5729847,-13.1323606 55,39.3970818 C55,61.2157374 67.7908497,79 83.5206972,79 Z" id="Path"></path>
        </g>
    </g>
</svg>