<svg xmlns="http://www.w3.org/2000/svg" width="240" height="226" viewBox="0 0 240 226"><g fill="none" fill-rule="evenodd"><circle cx="113" cy="113" r="105.5" stroke="#FFF" stroke-width="15" transform="translate(7)"/><g fill="#FFF" fill-rule="nonzero" transform="translate(78.64 69.495)"><polygon points="0 77.505 15.684 77.505 15.684 58.438 19.712 53.979 36.201 77.505 54.302 77.505 31.475 44.688 53.228 19.927 35.449 19.927 16.006 42.969 15.684 42.969 15.684 0 0 0"/><path d="M58.6523438,77.5048828 L74.3359375,77.5048828 L74.3359375,45.2783203 C74.3359375,36.8994141 78.8476562,32.2802734 86.5820312,32.2802734 C88.8378906,32.2802734 90.9863281,32.6025391 92.2753906,33.1396484 L92.2753906,19.3359375 C91.09375,19.0136719 89.4824219,18.7451172 87.7636719,18.7451172 C81.0498047,18.7451172 76.3769531,22.8808594 74.6582031,29.9707031 L74.3359375,29.9707031 L74.3359375,19.9267578 L58.6523438,19.9267578 L58.6523438,77.5048828 Z"/></g></g></svg>