<?xml version="1.0" encoding="UTF-8"?>
<svg width="240px" height="226px" viewBox="0 0 240 226" version="1.1" xmlns="http://www.w3.org/2000/svg" xmlns:xlink="http://www.w3.org/1999/xlink">
    <title>Artboard</title>
    <g id="Artboard" stroke="none" stroke-width="1" fill="none" fill-rule="evenodd">
        <g id="5603517_configuration_custom_options_preferences_setting_icon" transform="translate(7.000000, 0.000000)" fill="#FFFFFF" fill-rule="nonzero">
            <path d="M43.75,105.524615 L43.75,8.69230769 C43.75,3.89167871 39.8324916,0 35,0 C30.1675084,0 26.25,3.89167871 26.25,8.69230769 L26.25,105.524615 C10.8377243,109.477721 0.0516879449,123.264251 0,139.076923 L0,165.153846 C0.0516879449,180.966518 10.8377243,194.753048 26.25,198.706154 L26.25,217.307692 C26.25,222.108321 30.1675084,226 35,226 C39.8324916,226 43.75,222.108321 43.75,217.307692 L43.75,198.706154 C59.1622757,194.753048 69.9483121,180.966518 70,165.153846 L70,139.076923 C69.9483121,123.264251 59.1622757,109.477721 43.75,105.524615 Z M52.5,165.153846 C52.5,174.755104 44.6649831,182.538462 35,182.538462 C25.3350169,182.538462 17.5,174.755104 17.5,165.153846 L17.5,139.076923 C17.5,129.475665 25.3350169,121.692308 35,121.692308 C44.6649831,121.692308 52.5,129.475665 52.5,139.076923 L52.5,165.153846 Z" id="Shape"></path>
            <path d="M121.75,27.2938462 L121.75,8.69230769 C121.75,3.89167871 117.832492,0 113,0 C108.167508,0 104.25,3.89167871 104.25,8.69230769 L104.25,27.2938462 C88.8377243,31.2469517 78.0516879,45.0334816 78,60.8461538 L78,86.9230769 C78.0516879,102.735749 88.8377243,116.522279 104.25,120.475385 L104.25,217.307692 C104.25,222.108321 108.167508,226 113,226 C117.832492,226 121.75,222.108321 121.75,217.307692 L121.75,120.475385 C137.162276,116.522279 147.948312,102.735749 148,86.9230769 L148,60.8461538 C147.948312,45.0334816 137.162276,31.2469517 121.75,27.2938462 Z M130.5,86.9230769 C130.5,96.5243349 122.664983,104.307692 113,104.307692 C103.335017,104.307692 95.5,96.5243349 95.5,86.9230769 L95.5,60.8461538 C95.5,51.2448959 103.335017,43.4615385 113,43.4615385 C122.664983,43.4615385 130.5,51.2448959 130.5,60.8461538 L130.5,86.9230769 Z" id="Shape"></path>
            <path d="M199.75,105.524615 L199.75,8.69230769 C199.75,3.89167871 195.832492,0 191,0 C186.167508,0 182.25,3.89167871 182.25,8.69230769 L182.25,105.524615 C166.837724,109.477721 156.051688,123.264251 156,139.076923 L156,165.153846 C156.051688,180.966518 166.837724,194.753048 182.25,198.706154 L182.25,217.307692 C182.25,222.108321 186.167508,226 191,226 C195.832492,226 199.75,222.108321 199.75,217.307692 L199.75,198.706154 C215.162276,194.753048 225.948312,180.966518 226,165.153846 L226,139.076923 C225.948312,123.264251 215.162276,109.477721 199.75,105.524615 Z M208.5,165.153846 C208.5,174.755104 200.664983,182.538462 191,182.538462 C181.335017,182.538462 173.5,174.755104 173.5,165.153846 L173.5,139.076923 C173.5,129.475665 181.335017,121.692308 191,121.692308 C200.664983,121.692308 208.5,129.475665 208.5,139.076923 L208.5,165.153846 Z" id="Shape"></path>
        </g>
    </g>
</svg>