<svg xmlns="http://www.w3.org/2000/svg" width="97" height="49" viewBox="0 0 97 49"><path fill="#FFF" d="M65.9875958,0 C62.6738873,0 59.9875958,2.68629343 59.9875958,6 C59.9875958,9.31371043 62.6738873,12 65.9875958,12 L75.5031958,12 L53.9875958,33.5156019 L34.2297958,13.7578019 C33.1048866,12.6323385 31.5788496,12.0000132 29.9875958,12.0000132 C28.396342,12.0000132 26.870305,12.6323385 25.7453958,13.7578019 L1.7453958,37.7578019 C-0.586391588,40.1026023 -0.581119303,43.8921112 1.75718361,46.2304141 C4.09548653,48.568717 7.88499546,48.5739893 10.2297958,46.2422019 L29.9875958,26.4844019 L49.7453958,46.2422019 C50.870305,47.3676653 52.396342,48 53.9875958,48 C55.5788496,48 57.1048866,47.3676653 58.2297958,46.2422019 L83.9875958,20.4844019 L83.9875958,30 C83.9875958,33.3137104 86.6738873,36 89.9875958,36 C93.3013043,36 95.9875968,33.3137104 95.9875968,30 L95.9875968,6 C95.9875968,4.40842644 95.3566473,2.88177844 94.2312333,1.75636444 C93.1058193,0.630950439 91.5791713,-0.000900730673 89.9875958,0 L65.9875958,0 Z" transform="translate(.012 .75)"/></svg>