<svg xmlns="http://www.w3.org/2000/svg" width="240" height="226" viewBox="0 0 240 226"><g fill="none" fill-rule="evenodd"><circle cx="113" cy="113" r="105.5" stroke="#FFF" stroke-width="15" transform="translate(7)"/><path fill="#FFF" fill-rule="nonzero" d="M41.4208984,143.852539 L49.7216797,143.852539 L49.7216797,129.990234 C73.7939453,128.662109 90.8105469,116.293945 90.8105469,95.2929688 L90.8105469,95.1269531 C90.8105469,77.1142578 79.3554688,67.6513672 56.2792969,62.7539062 L49.7216797,61.4257812 L49.7216797,32.6220703 C59.5996094,33.7841797 65.6591797,38.7646484 66.9042969,46.9824219 L67.0703125,47.7294922 L89.2333984,47.7294922 L89.0673828,46.3183594 C87.4072266,27.1435547 72.7148438,15.3564453 49.7216797,13.9453125 L49.7216797,0 L41.4208984,0 L41.4208984,13.8623047 C17.7636719,15.0244141 1.74316406,28.0566406 1.74316406,47.4804688 L1.74316406,47.6464844 C1.74316406,65.2441406 13.0322266,75.5371094 35.1953125,80.1855469 L41.4208984,81.5136719 L41.4208984,111.230469 C29.3847656,110.151367 23.7402344,104.672852 22.3291016,97.0361328 L22.1630859,96.1230469 L0,96.1230469 L0.0830078125,97.3681641 C1.41113281,116.958008 17.5976562,128.745117 41.4208984,129.990234 L41.4208984,143.852539 Z M24.9023438,45.8203125 L24.9023438,45.6542969 C24.9023438,39.0136719 30.4638672,33.5351562 41.4208984,32.5390625 L41.4208984,59.6826172 C29.4677734,57.0263672 24.9023438,52.5439453 24.9023438,45.8203125 Z M67.6513672,97.4511719 L67.6513672,97.6171875 C67.6513672,105.087891 62.1728516,110.483398 49.7216797,111.396484 L49.7216797,83.2568359 C63.5009766,86.2451172 67.6513672,90.3125 67.6513672,97.4511719 Z" transform="translate(74.38 41.184)"/></g></svg>