<svg xmlns="http://www.w3.org/2000/svg" width="19" height="19" viewBox="0 0 19 19"><path d="M19,8.1814 C19,7.86283333 18.7631333,7.59303333 18.4464667,7.55313333 L16.5401333,7.31056667 C16.4071333,6.88116667 16.2355,6.46696667 16.0258667,6.0705 L17.2026,4.5505 C17.3976667,4.29843333 17.3748667,3.93996667 17.1494,3.71513333 L15.2861333,1.8506 C15.0606667,1.6245 14.7028333,1.6017 14.4501333,1.79676667 L12.9301333,2.97413333 C12.5330333,2.7645 12.1188333,2.59223333 11.6900667,2.45923333 L11.4462333,0.5529 C11.4057,0.236866667 11.1365333,0 10.8179667,0 L8.18203333,0 C7.86346667,0 7.59366667,0.236866667 7.55376667,0.5529 L7.31056667,2.45923333 C6.8818,2.59286667 6.46696667,2.7645 6.0705,2.97413333 L4.55113333,1.79676667 C4.2978,1.6017 3.93996667,1.62323333 3.71513333,1.84933333 L1.85123333,3.71386667 C1.62513333,3.93933333 1.60296667,4.29716667 1.79803333,4.54986667 L2.97413333,6.06986667 C2.76513333,6.4657 2.59286667,6.88053333 2.45986667,7.30993333 L0.5529,7.5525 C0.236866667,7.5924 0,7.8622 0,8.1814 L0.00126666667,9.49873333 L0,10.8167 C0,11.1359 0.236866667,11.4057 0.553533333,11.4456 L2.45986667,11.6881667 C2.59286667,12.1169333 2.7645,12.5317667 2.97413333,12.9288667 L1.79803333,14.4488667 C1.60296667,14.7009333 1.62576667,15.0587667 1.85123333,15.2836 L3.7145,17.1487667 C3.93996667,17.3736 4.2978,17.3964 4.5505,17.2019667 L6.06986667,16.0246 C6.46633333,16.2336 6.88116667,16.4058667 7.30993333,16.5395 L7.55313333,18.4471 C7.59303333,18.7625 7.86283333,19 8.1814,19 L9.5,18.9987333 L10.8179667,19 C11.1365333,19 11.4063333,18.7625 11.4462333,18.4458333 L11.6888,16.5395 C12.1175667,16.4071333 12.5324,16.2355 12.9295,16.0258667 L14.4495,17.2019667 C14.7015667,17.3964 15.0600333,17.3748667 15.2855,17.1487667 L17.1487667,15.2861333 C17.3742333,15.0600333 17.3970333,14.7022 17.2019667,14.4501333 L16.0252333,12.9295 C16.2342333,12.5330333 16.4065,12.1182 16.5395,11.6894333 L18.4464667,11.4468667 C18.7631333,11.4069667 19,11.1371667 19,10.8186 L18.9993667,9.5 L19,8.1814 Z M17.7333333,10.2606333 L15.9631667,10.4854667 C15.7035,10.5190333 15.4907,10.7084 15.428,10.9623667 C15.2804333,11.5602333 15.0442,12.1302333 14.7256333,12.6565333 C14.5901,12.8807333 14.6065667,13.1651 14.7661667,13.3722 L15.8593,14.7839 L14.7839,15.8586667 L13.3722,14.7661667 C13.1644667,14.6065667 12.8813667,14.5907333 12.6565333,14.7256333 C12.1302333,15.0448333 11.5602333,15.2798 10.9623667,15.4267333 C10.7077667,15.4900667 10.5184,15.7028667 10.4848333,15.9625333 L10.26,17.7333333 L9.5,17.7320667 L8.73936667,17.7333333 L8.5139,15.9619 C8.48033333,15.7035 8.29096667,15.4907 8.037,15.4273667 C7.43913333,15.2804333 6.86913333,15.0442 6.34346667,14.725 C6.24213333,14.6642 6.12813333,14.6331667 6.01476667,14.6331667 C5.87733333,14.6331667 5.74053333,14.6775 5.62716667,14.7655333 L4.2161,15.8593 L3.1407,14.7832667 L4.2332,13.3715667 C4.39343333,13.1644667 4.40926667,12.8801 4.27373333,12.6559 C3.95516667,12.1289667 3.71893333,11.5589667 3.572,10.9617333 C3.5093,10.7071333 3.2965,10.5177667 3.03683333,10.4842 L1.2673,10.2593667 L1.26793333,9.49873333 L1.2673,8.73873333 L3.03683333,8.5139 C3.2965,8.48033333 3.5093,8.29096667 3.572,8.03763333 C3.7202,7.43786667 3.95643333,6.86786667 4.27436667,6.34346667 C4.4099,6.11926667 4.39343333,5.83426667 4.23383333,5.62716667 L3.14133333,4.21546667 L4.2161,3.13943333 L5.6278,4.2332 C5.8349,4.39343333 6.11926667,4.40926667 6.3441,4.27373333 C6.86976667,3.95453333 7.43913333,3.7183 8.03763333,3.57136667 C8.2916,3.50866667 8.48096667,3.29586667 8.51453333,3.03683333 L8.74,1.26666667 L10.2606333,1.26666667 L10.4861,3.03683333 C10.5196667,3.2965 10.7090333,3.50866667 10.963,3.57136667 C11.5608667,3.7183 12.1308667,3.95453333 12.6565333,4.27373333 C12.8807333,4.40926667 13.1651,4.3928 13.3728333,4.2332 L14.7845333,3.13943333 L15.8599333,4.2161 L14.7668,5.6278 C14.6065667,5.8349 14.5907333,6.1199 14.7262667,6.3441 C15.0448333,6.8685 15.2810667,7.43913333 15.4286333,8.03763333 C15.4913333,8.2916 15.7041333,8.48096667 15.9638,8.51453333 L17.7333333,8.73936667 L17.7327,9.5 L17.7333333,10.2606333 Z"/><path d="M9.5,5 C7.01884224,5 5,7.01884224 5,9.5 C5,11.9811578 7.01884224,14 9.5,14 C11.9818026,14 14,11.9811578 14,9.5 C14,7.01884224 11.9818026,5 9.5,5 Z M9.5,12.7110618 C7.73004728,12.7110618 6.28958303,11.2712423 6.28958303,9.50064479 C6.28958303,7.73004728 7.72940249,6.29022783 9.5,6.29022783 C11.2705975,6.29022783 12.710417,7.73004728 12.710417,9.50064479 C12.710417,11.2712423 11.2705975,12.7110618 9.5,12.7110618 Z"/></svg>